<svg width="14" height="14" viewBox="0 0 14 14" fill="none" xmlns="http://www.w3.org/2000/svg">
<g clip-path="url(#clip0_2217_51)">
<path fill-rule="evenodd" clip-rule="evenodd" d="M1.82654 6.68303C1.61014 6.68303 1.21769 6.95819 1.21769 7.5963C1.21769 8.23441 1.61014 8.50957 1.82654 8.50957H12.1769C12.3933 8.50957 12.7858 8.23441 12.7858 7.5963C12.7858 6.95819 12.3933 6.68303 12.1769 6.68303C11.8407 6.68303 11.5681 6.41044 11.5681 6.07418C11.5681 5.73792 11.8407 5.46533 12.1769 5.46533C13.3053 5.46533 14.0035 6.55323 14.0035 7.5963C14.0035 8.63051 13.3171 9.7088 12.2056 9.72703C12.1162 10.2871 11.9002 10.8081 11.5523 11.2287C11.0712 11.8101 10.366 12.1626 9.51323 12.1626H4.49025C3.63747 12.1626 2.93227 11.8101 2.45121 11.2287C2.10332 10.8081 1.88725 10.2871 1.79791 9.72703C0.686351 9.7088 0 8.63051 0 7.5963C0 6.55323 0.69815 5.46533 1.82654 5.46533C2.1628 5.46533 2.43539 5.73792 2.43539 6.07418C2.43539 6.41044 2.1628 6.68303 1.82654 6.68303ZM3.03906 9.72726C3.1105 10.0168 3.23251 10.2627 3.38944 10.4524C3.63757 10.7524 3.99785 10.945 4.49025 10.945H9.51323C10.0056 10.945 10.3659 10.7524 10.614 10.4524C10.771 10.2627 10.893 10.0168 10.9644 9.72726H3.03906Z" fill="#1F1F1F"/>
<path fill-rule="evenodd" clip-rule="evenodd" d="M8.49157 -3.05446C8.82558 -3.09331 9.12783 -2.85403 9.16668 -2.52003L9.44979 -0.0857811C9.45634 -0.0295238 9.45499 0.0258324 9.44663 0.0791812C10.1885 0.212819 10.8738 0.491624 11.4334 0.927689C12.2448 1.56006 12.7514 2.49434 12.7841 3.66918C13.075 3.72822 13.3446 3.87158 13.5577 4.0846C13.8431 4.37005 14.0035 4.75721 14.0035 5.1609C14.0035 5.56459 13.8431 5.95174 13.5577 6.2372C13.2722 6.52265 12.8851 6.68301 12.4814 6.68301H6.34066L5.40922 7.61445C5.40914 7.61453 5.4093 7.61437 5.40922 7.61445C5.33859 7.6851 5.2545 7.74139 5.16222 7.77965C5.06982 7.81795 4.97078 7.83766 4.87078 7.83766C4.77077 7.83766 4.67173 7.81795 4.57934 7.77965C4.48705 7.74139 4.4032 7.68534 4.33257 7.61469C4.33249 7.61461 4.33264 7.61477 4.33257 7.61469L3.40089 6.68301H1.52212C1.11843 6.68301 0.73127 6.52265 0.445818 6.2372C0.160366 5.95174 0 5.56459 0 5.1609C0 4.75721 0.160366 4.37005 0.445818 4.0846C0.658779 3.87164 0.928346 3.7283 1.21916 3.66923C1.2497 2.4903 1.75698 1.5547 2.571 0.922796C3.3935 0.284312 4.48725 -0.014302 5.63183 -0.014302H8.23221L7.95714 -2.37935C7.91829 -2.71336 8.15757 -3.01561 8.49157 -3.05446ZM2.43866 3.63878H11.5644C11.5263 2.8565 11.1926 2.28386 10.6849 1.88816C10.1277 1.45395 9.31897 1.20339 8.37164 1.20339H5.63183C4.68351 1.20339 3.87461 1.45236 3.31769 1.88469C2.80877 2.27975 2.47484 2.85271 2.43866 3.63878ZM1.52212 4.85647C1.44138 4.85647 1.36395 4.88855 1.30686 4.94564C1.24977 5.00273 1.21769 5.08016 1.21769 5.1609C1.21769 5.24163 1.24977 5.31907 1.30686 5.37616C1.36395 5.43325 1.44138 5.46532 1.52212 5.46532H3.52713C3.76902 5.46543 4.00127 5.5615 4.17241 5.73245L4.87078 6.43082L5.56891 5.73269C5.74004 5.56174 5.97225 5.46543 6.21414 5.46532H12.4814C12.5621 5.46532 12.6395 5.43325 12.6966 5.37616C12.7537 5.31907 12.7858 5.24163 12.7858 5.1609C12.7858 5.08016 12.7537 5.00273 12.6966 4.94564C12.6395 4.88855 12.5621 4.85647 12.4814 4.85647H1.52212ZM4.54771 6.75389C4.54763 6.75397 4.54779 6.75381 4.54771 6.75389V6.75389ZM5.19384 6.75389C5.19377 6.75381 5.19392 6.75397 5.19384 6.75389V6.75389Z" fill="#1F1F1F"/>
</g>
<defs>
<clipPath id="clip0_2217_51">
<rect width="14" height="14" fill="white"/>
</clipPath>
</defs>
</svg>
