<svg width="14" height="14" viewBox="0 0 14 14" fill="none" xmlns="http://www.w3.org/2000/svg">
<path d="M12.152 2.65708C12.2106 2.56923 12.2443 2.46712 12.2494 2.36163C12.2545 2.25615 12.2309 2.15125 12.1811 2.05814C12.1313 1.96502 12.0571 1.88717 11.9665 1.83291C11.8759 1.77864 11.7723 1.74998 11.6667 1.75H2.33334C2.22782 1.75005 2.1243 1.77873 2.03379 1.83297C1.94328 1.8872 1.86918 1.96498 1.81937 2.058C1.76957 2.15102 1.74593 2.25581 1.75097 2.36121C1.75601 2.4666 1.78955 2.56866 1.848 2.6565L6.41667 9.51008V11.6667H4.66667V12.8333H9.33334V11.6667H7.58334V9.51008L12.152 2.65708V2.65708ZM7 8.28158L4.97875 5.25H9.02125L7 8.28158ZM10.577 2.91667L9.79942 4.08333H4.20059L3.423 2.91667H10.577V2.91667Z" fill="#ED8936"/>
</svg>
