<svg width="14" height="14" viewBox="0 0 14 14" fill="none" xmlns="http://www.w3.org/2000/svg">
<path d="M12.1642 0.292251C12.1856 0.345677 12.1961 0.402781 12.1953 0.460295C12.1946 0.51781 12.1824 0.574605 12.1597 0.627432C12.1369 0.680259 12.104 0.728079 12.0627 0.768158C12.0215 0.808237 11.9727 0.839786 11.9192 0.861001L9.947 1.65025L9.597 3.33638C9.926 3.4195 10.2226 3.5245 10.4475 3.6575C10.647 3.77563 10.9375 4.004 10.9375 4.375C10.9375 4.41525 10.934 4.45375 10.9279 4.4905L10.0861 12.425C10.0728 12.5856 10.0249 12.7415 9.94575 12.882C9.86662 13.0224 9.75811 13.1441 9.62762 13.2388C9.20062 13.5363 8.32037 14 6.99387 14C5.66737 14 4.78712 13.5363 4.36012 13.2388C4.22964 13.1441 4.12113 13.0224 4.042 12.882C3.96287 12.7415 3.91499 12.5856 3.90162 12.425L3.07125 4.4905C3.06506 4.45232 3.06214 4.41368 3.0625 4.375C3.0625 4.004 3.353 3.77563 3.5525 3.6575C3.78175 3.52275 4.08362 3.416 4.41875 3.332C5.096 3.16225 6.00862 3.0625 7 3.0625C7.623 3.0625 8.21537 3.10188 8.73687 3.17363L9.14287 1.2355C9.15834 1.16591 9.19058 1.10115 9.23679 1.04686C9.283 0.992567 9.34177 0.950392 9.408 0.924001L11.5955 0.049001C11.7032 0.00586317 11.8236 0.00725483 11.9302 0.05287C12.0369 0.0984852 12.1211 0.18459 12.1642 0.292251V0.292251ZM8.547 4.03113C8.03383 3.96727 7.51713 3.936 7 3.9375C6.0585 3.9375 5.22112 4.03375 4.63137 4.18075C4.43612 4.22556 4.24609 4.29066 4.06437 4.375C4.19212 4.43888 4.38112 4.50625 4.63137 4.56925C5.22112 4.71625 6.0585 4.8125 7 4.8125C7.49962 4.8125 7.97037 4.78625 8.3895 4.73813L8.547 4.03113ZM8.8025 5.56763C8.26437 5.64375 7.64925 5.6875 7 5.6875C6.00862 5.6875 5.096 5.58775 4.41875 5.418C4.29041 5.38619 4.16342 5.34912 4.03812 5.30688L4.77137 12.3331C4.78275 12.439 4.82387 12.4959 4.86062 12.5213C5.173 12.7391 5.88262 13.125 6.99387 13.125C8.10512 13.125 8.81475 12.7391 9.12712 12.5213C9.16387 12.4959 9.20587 12.439 9.21637 12.3331L9.96187 5.30688C9.83657 5.34911 9.70959 5.38619 9.58125 5.418C9.32437 5.4808 9.06444 5.53045 8.8025 5.56675V5.56763ZM3.90862 4.2735C3.90862 4.2735 3.91125 4.27525 3.913 4.27875L3.90862 4.2735ZM10.0914 4.2735L10.087 4.27875C10.0887 4.27525 10.0914 4.2735 10.0914 4.2735ZM9.93475 4.375C9.76522 4.29612 9.58815 4.23455 9.40625 4.19125L9.31962 4.58063L9.36775 4.56925C9.618 4.50625 9.807 4.43888 9.93475 4.375Z" fill="#1F1F1F"/>
</svg>
