<svg width="22" height="22" viewBox="0 0 22 22" fill="none" xmlns="http://www.w3.org/2000/svg">
<path d="M18.9844 2.91457C16.4759 1.92199 13.634 1.375 10.9811 1.375C8.24999 1.375 5.40374 1.9134 2.96484 2.89008C2.09257 3.24371 1.94261 3.86719 2.093 4.33211L2.26789 4.76953C2.3022 4.85519 2.3534 4.93307 2.41845 4.99852C2.48349 5.06397 2.56105 5.11566 2.64649 5.15051C2.73194 5.18535 2.82352 5.20264 2.91579 5.20133C3.00806 5.20003 3.09912 5.18017 3.18355 5.14293C3.64761 4.9384 4.21179 4.69004 4.34371 4.63676C6.23476 3.85172 8.53831 3.4375 11 3.4375C13.4694 3.4375 15.6445 3.83453 17.6498 4.65137C17.8398 4.72871 18.2892 4.92723 18.7743 5.14379C18.8586 5.18142 18.9495 5.20171 19.0418 5.20344C19.1341 5.20517 19.2257 5.18832 19.3113 5.15387C19.3969 5.11943 19.4747 5.06811 19.5401 5.00296C19.6054 4.93782 19.657 4.86018 19.6917 4.77469L19.8516 4.38281L19.8662 4.34414C20.0144 3.90543 19.8722 3.26777 18.9844 2.91457V2.91457Z" fill="#1F1F1F"/>
<path d="M17.582 6.05258C15.6265 5.26496 13.2206 4.8125 10.9811 4.8125C8.72125 4.81399 6.48131 5.2349 4.37508 6.05387C4.35231 6.06289 4.28657 6.09168 4.19075 6.13465C4.10791 6.17178 4.03324 6.22494 3.97105 6.29108C3.90886 6.35722 3.86039 6.43502 3.82843 6.51999C3.79648 6.60496 3.78166 6.69542 3.78485 6.78615C3.78803 6.87688 3.80916 6.96607 3.847 7.04859C4.01887 7.42285 4.25176 7.93289 4.51301 8.5048C5.92712 11.6016 8.55981 17.3594 9.76508 19.8516C9.87673 20.0841 10.052 20.2801 10.2706 20.417C10.4892 20.5539 10.7421 20.626 11 20.625C11.2583 20.626 11.5117 20.5536 11.7305 20.4162C11.9492 20.2788 12.1245 20.0821 12.2358 19.849L12.2384 19.8434L18.138 7.05719C18.177 6.97352 18.1987 6.88282 18.2018 6.79054C18.2049 6.69826 18.1893 6.60632 18.1559 6.52023C18.1226 6.43413 18.0722 6.35567 18.0077 6.28956C17.9433 6.22345 17.8661 6.17105 17.7809 6.13551C17.6838 6.09469 17.6155 6.06633 17.5875 6.05516L17.582 6.05258ZM8.33938 9.62199C8.06039 9.64018 7.78249 9.5729 7.54272 9.42911C7.30296 9.28531 7.11272 9.07185 6.99738 8.81717C6.88204 8.56249 6.84707 8.2787 6.89714 8.00364C6.94722 7.72859 7.07995 7.47533 7.27764 7.27763C7.47533 7.07994 7.72859 6.94721 8.00365 6.89714C8.27871 6.84707 8.5625 6.88203 8.81717 6.99737C9.07185 7.11272 9.28532 7.30295 9.42911 7.54272C9.5729 7.78249 9.64019 8.06039 9.622 8.33938C9.60028 8.67241 9.45818 8.98618 9.22218 9.22218C8.98619 9.45817 8.67242 9.60028 8.33938 9.62199ZM11.0894 15.122C10.8104 15.1402 10.5325 15.0729 10.2927 14.9291C10.053 14.7853 9.86272 14.5718 9.74738 14.3172C9.63204 14.0625 9.59707 13.7787 9.64714 13.5036C9.69722 13.2286 9.82995 12.9753 10.0276 12.7776C10.2253 12.5799 10.4786 12.4472 10.7537 12.3971C11.0287 12.3471 11.3125 12.382 11.5672 12.4974C11.8219 12.6127 12.0353 12.803 12.1791 13.0427C12.3229 13.2825 12.3902 13.5604 12.372 13.8394C12.3503 14.1724 12.2082 14.4862 11.9722 14.7222C11.7362 14.9582 11.4224 15.1003 11.0894 15.122ZM13.8394 10.3095C13.5604 10.3277 13.2825 10.2604 13.0427 10.1166C12.803 9.97281 12.6127 9.75935 12.4974 9.50467C12.382 9.24999 12.3471 8.9662 12.3971 8.69114C12.4472 8.41609 12.5799 8.16283 12.7776 7.96513C12.9753 7.76744 13.2286 7.63471 13.5037 7.58464C13.7787 7.53457 14.0625 7.56953 14.3172 7.68487C14.5719 7.80022 14.7853 7.99045 14.9291 8.23022C15.0729 8.46999 15.1402 8.74789 15.122 9.02688C15.1003 9.35991 14.9582 9.67368 14.7222 9.90968C14.4862 10.1457 14.1724 10.2878 13.8394 10.3095V10.3095Z" fill="#1F1F1F"/>
</svg>
