<svg width="174" height="52" viewBox="0 0 174 52" fill="none" xmlns="http://www.w3.org/2000/svg">
<path d="M138.971 13.5987H130.779H113.547C113.221 13.5987 112.956 13.863 112.956 14.19C112.956 14.5169 113.221 14.7812 113.547 14.7812H130.487L134.406 19.8719C134.518 20.0167 134.691 20.1025 134.874 20.1025C135.058 20.1025 135.231 20.0167 135.343 19.8719L139.262 14.7812H141.336C141.663 14.7812 141.927 14.5169 141.927 14.19C141.927 13.863 141.663 13.5987 141.336 13.5987H138.971Z" fill="#F6E05E"/>
<path d="M113.327 12.4162H141.556C141.737 12.4162 141.906 12.3341 142.019 12.1933C142.131 12.0526 142.173 11.8682 142.132 11.6926C140.552 4.80804 134.511 0 127.442 0C120.372 0 114.331 4.80804 112.751 11.6926C112.711 11.8682 112.752 12.052 112.865 12.1933C112.977 12.3346 113.147 12.4162 113.327 12.4162ZM134.341 6.76685C134.521 6.49488 134.888 6.42156 135.161 6.60308L136.934 7.78557C137.206 7.96709 137.279 8.33366 137.098 8.60564C136.984 8.77651 136.797 8.86874 136.606 8.86874C136.493 8.86874 136.379 8.83622 136.278 8.76941L134.504 7.58691C134.233 7.4054 134.16 7.03883 134.341 6.76685ZM130.756 8.60445L131.347 7.42196C131.493 7.12988 131.847 7.01222 132.141 7.15767C132.433 7.30371 132.551 7.65905 132.405 7.95112L131.814 9.13362C131.71 9.34115 131.501 9.46058 131.284 9.46058C131.195 9.46058 131.105 9.44048 131.02 9.3985C130.729 9.25128 130.61 8.89653 130.756 8.60445ZM129.247 4.20083C129.54 4.05597 129.894 4.17363 130.04 4.46512L130.632 5.64762C130.778 5.93969 130.659 6.29503 130.367 6.44107C130.282 6.48305 130.192 6.50315 130.104 6.50315C129.887 6.50315 129.678 6.38372 129.574 6.17619L128.983 4.99369C128.836 4.70221 128.955 4.34687 129.247 4.20083ZM125.435 3.87446L126.026 2.69196C126.172 2.40047 126.527 2.28281 126.819 2.42767C127.111 2.57371 127.23 2.92905 127.084 3.22113L126.492 4.40363C126.389 4.61116 126.18 4.73059 125.963 4.73059C125.874 4.73059 125.783 4.71048 125.699 4.66851C125.407 4.52129 125.289 4.16654 125.435 3.87446ZM124.843 9.1957L125.435 8.0132C125.581 7.72172 125.935 7.60347 126.228 7.74892C126.52 7.89496 126.638 8.2503 126.492 8.54237L125.901 9.72487C125.798 9.9324 125.589 10.0518 125.371 10.0518C125.283 10.0518 125.192 10.0317 125.108 9.98975C124.816 9.84253 124.697 9.48778 124.843 9.1957ZM121.561 5.38333C121.853 5.23788 122.208 5.35554 122.354 5.64762L122.945 6.83011C123.091 7.12219 122.973 7.47753 122.681 7.62357C122.596 7.66555 122.506 7.68565 122.417 7.68565C122.2 7.68565 121.992 7.56622 121.888 7.35869L121.296 6.17619C121.15 5.88471 121.269 5.52937 121.561 5.38333ZM118.34 9.1957L118.931 8.0132C119.077 7.72172 119.431 7.60347 119.724 7.74892C120.016 7.89496 120.135 8.2503 119.989 8.54237L119.397 9.72487C119.294 9.9324 119.085 10.0518 118.868 10.0518C118.779 10.0518 118.688 10.0317 118.604 9.98975C118.312 9.84253 118.194 9.48778 118.34 9.1957Z" fill="#D69E2E"/>
<path d="M141.32 23.0587H113.547C113.358 23.0587 113.179 23.1498 113.068 23.3035C112.957 23.4578 112.926 23.6559 112.986 23.8356L114.478 28.3403C115.08 30.159 116.772 31.3811 118.688 31.3811H136.189C138.109 31.3811 139.802 30.1561 140.402 28.3321L141.882 23.835C141.942 23.6547 141.91 23.4572 141.799 23.3041C141.688 23.1509 141.51 23.0587 141.32 23.0587ZM121.134 27.5256C121.02 27.6965 120.833 27.7887 120.642 27.7887C120.53 27.7887 120.415 27.7562 120.314 27.6894L118.541 26.5069C118.269 26.3254 118.196 25.9588 118.377 25.6868C118.558 25.4148 118.924 25.3415 119.197 25.523L120.971 26.7055C121.242 26.8871 121.315 27.2536 121.134 27.5256ZM124.719 26.2793L124.128 27.4618C124.024 27.6693 123.816 27.7887 123.598 27.7887C123.509 27.7887 123.419 27.7686 123.334 27.7266C123.042 27.5806 122.924 27.2253 123.07 26.9332L123.661 25.7507C123.807 25.4586 124.162 25.3409 124.455 25.4864C124.746 25.6318 124.865 25.9872 124.719 26.2793ZM127.411 29.4998C127.325 29.5418 127.236 29.5619 127.147 29.5619C126.93 29.5619 126.721 29.4424 126.617 29.2349L126.026 28.0524C125.88 27.7603 125.998 27.405 126.29 27.259C126.583 27.1135 126.938 27.2312 127.084 27.5232L127.675 28.7057C127.821 28.999 127.703 29.3537 127.411 29.4998ZM130.632 25.688L130.04 26.8705C129.937 27.078 129.728 27.1975 129.511 27.1975C129.422 27.1975 129.331 27.1774 129.247 27.1354C128.955 26.9893 128.837 26.634 128.983 26.3419L129.574 25.1594C129.72 24.8679 130.074 24.7503 130.367 24.8951C130.659 25.0406 130.778 25.3959 130.632 25.688ZM133.914 28.9085C133.829 28.9505 133.739 28.9706 133.651 28.9706C133.434 28.9706 133.225 28.8512 133.121 28.6437L132.53 27.4612C132.384 27.1691 132.502 26.8137 132.794 26.6677C133.087 26.5228 133.441 26.6405 133.587 26.932L134.179 28.1145C134.325 28.4078 134.206 28.7625 133.914 28.9085ZM137.135 25.688L136.544 26.8705C136.441 27.078 136.232 27.1975 136.014 27.1975C135.926 27.1975 135.835 27.1774 135.751 27.1354C135.459 26.9893 135.34 26.634 135.486 26.3419L136.078 25.1594C136.224 24.8679 136.578 24.7503 136.871 24.8951C137.163 25.0406 137.281 25.3959 137.135 25.688Z" fill="#D69E2E"/>
<path d="M141.927 15.9637H139.845L136.28 20.5932C135.945 21.0266 135.42 21.285 134.875 21.285C134.33 21.285 133.804 21.0266 133.471 20.595L129.906 15.9637H112.956C111.326 15.9637 110 17.2899 110 18.92C110 20.5501 111.326 21.8762 112.956 21.8762H141.927C143.558 21.8762 144.884 20.5501 144.884 18.92C144.884 17.2899 143.558 15.9637 141.927 15.9637ZM131.112 19.338C130.763 19.6868 130.299 19.879 129.807 19.879C129.314 19.879 128.851 19.6868 128.502 19.338C128.243 19.079 127.823 19.079 127.564 19.338C126.845 20.0576 125.674 20.0576 124.954 19.338C124.703 19.0873 124.268 19.0873 124.017 19.338C123.297 20.0576 122.127 20.0576 121.407 19.338C121.156 19.0873 120.721 19.0873 120.469 19.338C119.75 20.0576 118.579 20.0576 117.859 19.338C117.601 19.079 117.181 19.079 116.922 19.338C116.202 20.0576 115.032 20.0576 114.312 19.338C114.053 19.079 113.633 19.079 113.374 19.338C113.143 19.5692 112.769 19.5692 112.538 19.338C112.307 19.1068 112.307 18.7332 112.538 18.502C113.236 17.8043 114.45 17.8043 115.148 18.502C115.407 18.7609 115.827 18.7609 116.086 18.502C116.805 17.7824 117.976 17.7824 118.696 18.502C118.947 18.7527 119.382 18.7527 119.633 18.502C120.353 17.7824 121.523 17.7824 122.243 18.502C122.494 18.7527 122.929 18.7527 123.181 18.502C123.9 17.7824 125.071 17.7824 125.791 18.502C126.049 18.7609 126.469 18.7609 126.728 18.502C127.448 17.7824 128.618 17.7824 129.338 18.502C129.597 18.7609 130.017 18.7609 130.276 18.502C130.507 18.2708 130.881 18.2708 131.112 18.502C131.343 18.7332 131.343 19.1068 131.112 19.338ZM142.345 19.338C141.986 19.6975 141.513 19.8778 141.041 19.8778C140.568 19.8778 140.095 19.6975 139.736 19.338C139.484 19.0873 139.049 19.0873 138.798 19.338C138.567 19.5692 138.193 19.5692 137.962 19.338C137.731 19.1068 137.731 18.7332 137.962 18.502C138.682 17.7824 139.852 17.7824 140.572 18.502C140.823 18.7527 141.258 18.7527 141.509 18.502C141.741 18.2708 142.114 18.2708 142.345 18.502C142.577 18.7332 142.577 19.1068 142.345 19.338Z" fill="#7C5B06"/>
<ellipse cx="136.199" cy="36.4501" rx="2.32558" ry="1.93798" transform="rotate(-7 136.199 36.4501)" fill="#9B2C2C"/>
<ellipse cx="151.387" cy="36.1083" rx="2.32558" ry="1.93798" transform="rotate(-7 151.387 36.1083)" fill="#9B2C2C"/>
<ellipse cx="148.335" cy="27.1499" rx="2.32558" ry="1.93798" transform="rotate(-7 148.335 27.1499)" fill="#9B2C2C"/>
<rect x="141.788" y="31.0779" width="16.2791" height="3.87597" transform="rotate(-7 141.788 31.0779)" fill="#276749"/>
<path d="M172.528 34.1853C171.544 29.6171 169.335 24.9751 166.863 21.1681L166.107 21.6597L166.862 21.1682C165.625 19.264 164.321 17.5738 163.05 16.2046C162.075 15.1588 161.128 14.3038 160.198 13.6789L160.241 13.6126L159.378 13.1806L159.269 13.1106C159.197 13.0628 159.104 13.0033 159.002 12.9396L158.995 12.9351C158.634 12.7137 158.08 12.4005 157.384 12.1811C156.691 11.9631 155.837 11.8411 154.912 12.0335L154.907 12.0351C154.397 12.1439 153.885 12.3592 153.398 12.6768L153.385 12.6794L153.238 12.7789L153.218 12.7901L152.449 13.3296L152.446 13.3325L152.425 13.3466C151.493 14.0282 150.817 14.8574 150.441 15.773L150.443 15.771C150.063 16.687 150.004 17.6584 150.198 18.5572C150.272 18.8983 150.388 19.2243 150.525 19.538L127.625 38.3312C127.105 38.7576 126.804 39.3254 126.678 39.8797C126.554 40.4195 126.578 40.9412 126.662 41.406C126.713 41.6904 126.775 42.0426 126.854 42.414C126.969 42.9413 127.109 43.5082 127.345 44.0411L127.345 44.0437C127.462 44.3015 127.617 44.5935 127.865 44.8635C128.004 45.0148 128.176 45.1603 128.397 45.2768C128.615 45.3917 128.887 45.4735 129.186 45.4758L129.187 45.4774C129.263 45.4788 139.271 45.6076 149.413 45.7104C154.5 45.762 159.62 45.8069 163.533 45.8262C165.489 45.8341 167.144 45.8382 168.348 45.8314C168.95 45.8292 169.44 45.8233 169.802 45.815C169.98 45.811 170.131 45.8066 170.262 45.7993L170.319 45.7959L170.27 45.7983C170.359 45.7926 170.492 45.7905 170.666 45.7567L170.708 45.748L170.815 45.7173L170.873 45.7004L171.004 45.6409L171.057 45.6174L171.108 45.5853C171.118 45.5807 171.197 45.5355 171.277 45.4672C171.36 45.3985 171.443 45.3094 171.513 45.2148L171.526 45.1964L171.557 45.1501L171.573 45.125L171.603 45.0709L171.63 45.0214L171.606 45.0652C173.32 41.863 173.345 38.0154 172.528 34.1853ZM152.62 34.4115C153.095 34.6535 153.471 35.0762 153.586 35.6186C153.703 36.1608 153.534 36.7 153.2 37.116C152.865 37.5355 152.363 37.8462 151.77 37.9739C151.177 38.1008 150.592 38.0229 150.116 37.7782C149.64 37.5353 149.265 37.1117 149.15 36.571C149.033 36.0289 149.202 35.4888 149.536 35.0729C149.871 34.6551 150.371 34.3438 150.964 34.2169C151.558 34.0898 152.143 34.1678 152.62 34.4115ZM146.832 26.0772C147.124 25.7117 147.561 25.44 148.076 25.3307C148.592 25.2203 149.101 25.2872 149.518 25.502C149.933 25.7132 150.264 26.0847 150.367 26.5632C150.469 27.0407 150.321 27.5151 150.028 27.879C149.736 28.2455 149.299 28.518 148.783 28.6285C148.268 28.7378 147.758 28.6701 147.341 28.4554C146.925 28.2442 146.595 27.8718 146.493 27.3943C146.39 26.9167 146.539 26.442 146.832 26.0772ZM143.94 31.8374L145.557 33.7057L143.814 34.4585L142.548 32.8219L142.366 32.5873L143.94 31.8374ZM134.551 35.5285C134.871 35.1284 135.351 34.8312 135.917 34.7094C136.483 34.5875 137.042 34.6634 137.497 34.8964C137.952 35.1285 138.311 35.5347 138.422 36.0545C138.534 36.5725 138.373 37.0904 138.054 37.4876C137.733 37.8868 137.255 38.1849 136.689 38.3076C136.122 38.4285 135.562 38.3536 135.107 38.1197C134.653 37.8875 134.294 37.4823 134.183 36.9633C134.071 36.4443 134.232 35.9274 134.551 35.5285ZM170.002 44.0074C169.965 44.0084 169.917 44.009 169.877 44.0103C169.838 44.0115 169.805 44.0129 169.761 44.014C169.414 44.021 168.934 44.0267 168.339 44.0308C167.173 44.0374 165.561 44.0333 163.662 44.0254C163.49 44.0252 163.311 44.0241 163.134 44.0229C162.841 44.0216 162.547 44.0196 162.241 44.0173C162.058 44.0177 161.87 44.015 161.682 44.0151C161.268 44.0128 160.853 44.0097 160.421 44.0059C160.41 44.0056 160.399 44.006 160.389 44.0073C157.067 43.9827 153.24 43.9465 149.431 43.9083C140.336 43.816 131.345 43.7024 129.544 43.6807C129.366 43.6777 129.245 43.6758 129.225 43.6755L129.218 43.6693C129.211 43.6648 129.204 43.6587 129.19 43.6452C129.166 43.6181 129.138 43.579 129.111 43.5362C129.07 43.4747 129.029 43.3983 128.989 43.3066C128.923 43.1578 128.862 42.9756 128.805 42.7806C128.792 42.7396 128.779 42.6951 128.767 42.6488C128.713 42.4534 128.661 42.2472 128.615 42.0355C128.544 41.7031 128.485 41.3728 128.435 41.0908C128.42 41.0093 128.422 40.9346 128.416 40.8555L163.712 40.6675L164.087 40.6552L164.176 40.226L164.234 40.0327C164.518 39.2587 165.305 38.5949 166.27 38.3914C167.086 38.2194 168 38.3561 168.853 39.003C169.253 39.2934 169.632 40.0842 169.83 41.0419C170.037 42.0028 170.082 43.1042 170.002 44.0074ZM153.505 31.8214L153.486 30.5608L153.482 30.2839L157.029 29.9281L156.998 31.551L153.505 31.8214ZM171.056 41.0943C171.008 41.3722 170.951 41.6442 170.884 41.9129C170.882 41.9247 170.88 41.9373 170.877 41.9501C170.838 41.5784 170.787 41.2097 170.711 40.8522C170.477 39.7979 170.107 38.8419 169.399 38.2873C168.342 37.4794 167.131 37.2825 166.081 37.5107C165.225 37.6955 164.462 38.1507 163.936 38.7826C162.576 33.1571 160.332 28.7392 158.142 25.5554C156.976 23.8622 155.829 22.5124 154.844 21.5025C153.906 20.5436 153.13 19.9059 152.588 19.5498C152.46 19.3714 152.358 19.1845 152.265 18.9975C152.236 18.9407 152.204 18.8861 152.179 18.8307C152.085 18.6163 152.007 18.399 151.96 18.1797C151.929 18.0355 151.909 17.8917 151.899 17.7485C151.897 17.7132 151.9 17.6775 151.9 17.6421C151.895 17.5345 151.892 17.4249 151.9 17.3158C151.924 17.0293 151.991 16.741 152.108 16.4573L152.109 16.4563C152.225 16.1735 152.393 15.8906 152.62 15.6119C152.846 15.3351 153.131 15.0644 153.483 14.8057L154.043 14.4134L154.112 14.3661L154.12 14.3642L154.268 14.2583C154.344 14.2027 154.419 14.1705 154.495 14.1258C154.762 13.9689 155.027 13.8513 155.282 13.7969C155.289 13.7952 155.296 13.7952 155.302 13.7945C155.458 13.7612 155.614 13.7492 155.767 13.7445C155.824 13.7428 155.879 13.7449 155.934 13.7471C156.053 13.7511 156.169 13.7608 156.284 13.7768C156.325 13.7833 156.366 13.7871 156.407 13.7944C156.562 13.8241 156.714 13.8605 156.86 13.9064C157.077 13.9754 157.28 14.0621 157.467 14.1526C157.513 14.1744 157.556 14.1966 157.599 14.2187C157.627 14.2321 157.649 14.2472 157.676 14.2616L157.641 14.3155L158.527 14.7722C158.976 14.9997 159.482 15.3462 160.02 15.794C160.562 16.2434 161.139 16.7946 161.731 17.431C161.754 17.4573 161.778 17.4862 161.802 17.5117C162.048 17.7784 162.296 18.0599 162.546 18.3546C162.618 18.4405 162.692 18.5298 162.765 18.6174C162.981 18.879 163.199 19.1491 163.417 19.4289C163.482 19.5132 163.548 19.5972 163.614 19.6831C164.17 20.4123 164.726 21.1994 165.27 22.0285C165.343 22.1401 165.415 22.2536 165.487 22.3652C165.684 22.6724 165.879 22.9862 166.072 23.3037C166.155 23.4413 166.238 23.5775 166.322 23.717C166.555 24.1103 166.783 24.5094 167.007 24.9152C167.048 24.99 167.089 25.0664 167.131 25.142C167.353 25.5499 167.567 25.9639 167.777 26.3822C167.853 26.5325 167.926 26.6847 168.001 26.8369C168.164 27.1723 168.323 27.5098 168.479 27.8506C168.543 27.9942 168.61 28.1376 168.674 28.2821C169.096 29.2405 169.48 30.2144 169.816 31.1905C169.859 31.3165 169.899 31.4409 169.94 31.567C170.066 31.9468 170.183 32.3268 170.293 32.7059C170.33 32.8369 170.368 32.9661 170.404 33.0963C170.538 33.5868 170.662 34.0767 170.766 34.5629C170.853 34.9627 170.923 35.3581 170.987 35.7508C171.007 35.876 171.024 35.9997 171.042 36.126C171.082 36.3985 171.114 36.6701 171.142 36.9388C171.157 37.0787 171.173 37.2168 171.183 37.3555C171.211 37.6924 171.229 38.0252 171.238 38.3556C171.242 38.5289 171.239 38.6994 171.237 38.8697C171.236 39.0755 171.233 39.2806 171.223 39.4829C171.215 39.67 171.201 39.8561 171.184 40.0406C171.172 40.2053 171.152 40.3664 171.133 40.5273C171.109 40.7165 171.087 40.9079 171.056 41.0943Z" fill="#ED8936"/>
<path d="M4.56 29C4.12 29 3.75 28.85 3.45 28.55C3.15 28.25 3 27.88 3 27.44V7.13C3 6.67 3.15 6.3 3.45 6.02C3.75 5.72 4.12 5.57 4.56 5.57H10.56C12.06 5.57 13.39 5.9 14.55 6.56C15.71 7.22 16.61 8.14 17.25 9.32C17.91 10.48 18.24 11.82 18.24 13.34C18.24 14.8 17.91 16.1 17.25 17.24C16.61 18.38 15.71 19.27 14.55 19.91C13.39 20.55 12.06 20.87 10.56 20.87H6.12V27.44C6.12 27.88 5.97 28.25 5.67 28.55C5.39 28.85 5.02 29 4.56 29ZM6.12 17.99H10.56C11.48 17.99 12.29 17.79 12.99 17.39C13.69 16.99 14.24 16.44 14.64 15.74C15.04 15.04 15.24 14.24 15.24 13.34C15.24 12.38 15.04 11.54 14.64 10.82C14.24 10.08 13.69 9.5 12.99 9.08C12.29 8.66 11.48 8.45 10.56 8.45H6.12V17.99ZM23.2214 29C22.7814 29 22.4114 28.86 22.1114 28.58C21.8314 28.28 21.6914 27.91 21.6914 27.47V14.12C21.6914 13.66 21.8314 13.29 22.1114 13.01C22.4114 12.73 22.7814 12.59 23.2214 12.59C23.6814 12.59 24.0514 12.73 24.3314 13.01C24.6114 13.29 24.7514 13.66 24.7514 14.12V27.47C24.7514 27.91 24.6114 28.28 24.3314 28.58C24.0514 28.86 23.6814 29 23.2214 29ZM23.2214 9.92C22.6814 9.92 22.2114 9.73 21.8114 9.35C21.4314 8.95 21.2414 8.48 21.2414 7.94C21.2414 7.4 21.4314 6.94 21.8114 6.56C22.2114 6.16 22.6814 5.96 23.2214 5.96C23.7614 5.96 24.2214 6.16 24.6014 6.56C25.0014 6.94 25.2014 7.4 25.2014 7.94C25.2014 8.48 25.0014 8.95 24.6014 9.35C24.2214 9.73 23.7614 9.92 23.2214 9.92ZM32.0041 28.43L29.9641 26.63L40.1641 13.16L42.1741 14.96L32.0041 28.43ZM31.1041 29C30.1641 29 29.6941 28.53 29.6941 27.59C29.6941 26.65 30.1641 26.18 31.1041 26.18H41.3341C42.2741 26.18 42.7441 26.65 42.7441 27.59C42.7441 28.53 42.2741 29 41.3341 29H31.1041ZM30.8041 15.41C29.8641 15.41 29.3941 14.94 29.3941 14C29.3941 13.06 29.8641 12.59 30.8041 12.59H41.0341C41.9741 12.59 42.4441 13.06 42.4441 14C42.4441 14.94 41.9741 15.41 41.0341 15.41H30.8041ZM48.2053 28.43L46.1653 26.63L56.3653 13.16L58.3753 14.96L48.2053 28.43ZM47.3053 29C46.3653 29 45.8953 28.53 45.8953 27.59C45.8953 26.65 46.3653 26.18 47.3053 26.18H57.5353C58.4753 26.18 58.9453 26.65 58.9453 27.59C58.9453 28.53 58.4753 29 57.5353 29H47.3053ZM47.0053 15.41C46.0653 15.41 45.5953 14.94 45.5953 14C45.5953 13.06 46.0653 12.59 47.0053 12.59H57.2353C58.1753 12.59 58.6453 13.06 58.6453 14C58.6453 14.94 58.1753 15.41 57.2353 15.41H47.0053ZM69.1005 29.12C67.6405 29.12 66.3305 28.76 65.1705 28.04C64.0105 27.3 63.0905 26.31 62.4105 25.07C61.7505 23.81 61.4205 22.39 61.4205 20.81C61.4205 19.23 61.7805 17.81 62.5005 16.55C63.2405 15.29 64.2305 14.3 65.4705 13.58C66.7305 12.84 68.1405 12.47 69.7005 12.47C71.2605 12.47 72.6605 12.84 73.9005 13.58C75.1405 14.3 76.1205 15.29 76.8405 16.55C77.5805 17.81 77.9505 19.23 77.9505 20.81H76.7805C76.7805 22.39 76.4405 23.81 75.7605 25.07C75.1005 26.31 74.1905 27.3 73.0305 28.04C71.8705 28.76 70.5605 29.12 69.1005 29.12ZM69.7005 26.42C70.7205 26.42 71.6305 26.18 72.4305 25.7C73.2305 25.2 73.8605 24.53 74.3205 23.69C74.7805 22.83 75.0105 21.87 75.0105 20.81C75.0105 19.73 74.7805 18.77 74.3205 17.93C73.8605 17.07 73.2305 16.4 72.4305 15.92C71.6305 15.42 70.7205 15.17 69.7005 15.17C68.7005 15.17 67.7905 15.42 66.9705 15.92C66.1705 16.4 65.5305 17.07 65.0505 17.93C64.5905 18.77 64.3605 19.73 64.3605 20.81C64.3605 21.87 64.5905 22.83 65.0505 23.69C65.5305 24.53 66.1705 25.2 66.9705 25.7C67.7905 26.18 68.7005 26.42 69.7005 26.42ZM76.4205 29.03C75.9805 29.03 75.6105 28.89 75.3105 28.61C75.0305 28.31 74.8905 27.94 74.8905 27.5V22.91L75.4605 19.73L77.9505 20.81V27.5C77.9505 27.94 77.8005 28.31 77.5005 28.61C77.2205 28.89 76.8605 29.03 76.4205 29.03Z" fill="#ED8936"/>
<path d="M10.208 43.12C8.96 43.12 7.832 42.832 6.824 42.256C5.832 41.68 5.04 40.896 4.448 39.904C3.872 38.896 3.576 37.768 3.56 36.52V25.192C3.56 24.904 3.64 24.68 3.8 24.52C3.976 24.344 4.208 24.256 4.496 24.256C4.768 24.256 4.984 24.344 5.144 24.52C5.32 24.68 5.408 24.904 5.408 25.192V32.248C5.936 31.496 6.632 30.896 7.496 30.448C8.376 29.984 9.352 29.752 10.424 29.752C11.656 29.752 12.76 30.048 13.736 30.64C14.712 31.216 15.48 32.008 16.04 33.016C16.616 34.024 16.904 35.16 16.904 36.424C16.904 37.704 16.608 38.848 16.016 39.856C15.44 40.864 14.648 41.664 13.64 42.256C12.632 42.832 11.488 43.12 10.208 43.12ZM10.208 41.44C11.136 41.44 11.968 41.224 12.704 40.792C13.44 40.344 14.016 39.744 14.432 38.992C14.864 38.24 15.08 37.384 15.08 36.424C15.08 35.48 14.864 34.632 14.432 33.88C14.016 33.112 13.44 32.512 12.704 32.08C11.968 31.648 11.136 31.432 10.208 31.432C9.296 31.432 8.472 31.648 7.736 32.08C7 32.512 6.424 33.112 6.008 33.88C5.592 34.632 5.384 35.48 5.384 36.424C5.384 37.384 5.592 38.24 6.008 38.992C6.424 39.744 7 40.344 7.736 40.792C8.472 41.224 9.296 41.44 10.208 41.44ZM26.2408 43.144C25.1048 43.144 24.0888 42.912 23.1928 42.448C22.2968 41.968 21.5848 41.272 21.0568 40.36C20.5448 39.448 20.2888 38.336 20.2888 37.024V30.784C20.2888 30.528 20.3768 30.312 20.5528 30.136C20.7288 29.96 20.9448 29.872 21.2008 29.872C21.4728 29.872 21.6968 29.96 21.8728 30.136C22.0488 30.312 22.1368 30.528 22.1368 30.784V37.024C22.1368 38.016 22.3208 38.832 22.6888 39.472C23.0728 40.112 23.5848 40.592 24.2248 40.912C24.8808 41.232 25.6168 41.392 26.4328 41.392C27.2168 41.392 27.9208 41.24 28.5448 40.936C29.1848 40.632 29.6888 40.216 30.0568 39.688C30.4248 39.16 30.6088 38.56 30.6088 37.888H31.9288C31.8808 38.896 31.6008 39.8 31.0888 40.6C30.5928 41.384 29.9208 42.008 29.0728 42.472C28.2248 42.92 27.2808 43.144 26.2408 43.144ZM31.5208 43C31.2488 43 31.0248 42.92 30.8488 42.76C30.6888 42.584 30.6088 42.352 30.6088 42.064V30.784C30.6088 30.512 30.6888 30.296 30.8488 30.136C31.0248 29.96 31.2488 29.872 31.5208 29.872C31.7928 29.872 32.0168 29.96 32.1928 30.136C32.3688 30.296 32.4568 30.512 32.4568 30.784V42.064C32.4568 42.352 32.3688 42.584 32.1928 42.76C32.0168 42.92 31.7928 43 31.5208 43ZM37.5389 34.912C37.5869 33.92 37.8429 33.032 38.3069 32.248C38.7869 31.464 39.4029 30.848 40.1549 30.4C40.9229 29.952 41.7709 29.728 42.6989 29.728C43.4349 29.728 44.0029 29.832 44.4029 30.04C44.8029 30.248 44.9549 30.552 44.8589 30.952C44.7949 31.192 44.6829 31.352 44.5229 31.432C44.3789 31.512 44.1949 31.544 43.9709 31.528C43.7629 31.512 43.5229 31.496 43.2509 31.48C42.3549 31.4 41.5549 31.496 40.8509 31.768C40.1629 32.024 39.6109 32.424 39.1949 32.968C38.7949 33.512 38.5949 34.16 38.5949 34.912H37.5389ZM37.6829 43C37.3949 43 37.1709 42.92 37.0109 42.76C36.8509 42.6 36.7709 42.376 36.7709 42.088V30.784C36.7709 30.496 36.8509 30.272 37.0109 30.112C37.1709 29.952 37.3949 29.872 37.6829 29.872C37.9709 29.872 38.1949 29.952 38.3549 30.112C38.5149 30.272 38.5949 30.496 38.5949 30.784V42.088C38.5949 42.376 38.5149 42.6 38.3549 42.76C38.1949 42.92 37.9709 43 37.6829 43ZM52.5862 43.12C51.3222 43.12 50.2022 42.84 49.2262 42.28C48.2502 41.704 47.4822 40.912 46.9222 39.904C46.3782 38.896 46.1062 37.744 46.1062 36.448C46.1062 35.136 46.3942 33.976 46.9702 32.968C47.5462 31.96 48.3382 31.176 49.3462 30.616C50.3542 30.04 51.4982 29.752 52.7782 29.752C54.0742 29.752 55.2182 30.04 56.2102 30.616C57.2182 31.176 58.0022 31.96 58.5622 32.968C59.1382 33.976 59.4342 35.136 59.4502 36.448L58.3702 37.024C58.3702 38.208 58.1222 39.264 57.6262 40.192C57.1302 41.104 56.4422 41.824 55.5622 42.352C54.6982 42.864 53.7062 43.12 52.5862 43.12ZM52.8262 48.184C51.5622 48.184 50.4502 47.944 49.4902 47.464C48.5302 47 47.7382 46.36 47.1142 45.544C46.9382 45.352 46.8582 45.144 46.8742 44.92C46.9062 44.696 47.0262 44.512 47.2342 44.368C47.4422 44.224 47.6742 44.176 47.9302 44.224C48.1862 44.272 48.3862 44.392 48.5302 44.584C48.9942 45.16 49.5862 45.624 50.3062 45.976C51.0422 46.328 51.8902 46.504 52.8502 46.504C53.7462 46.504 54.5542 46.288 55.2742 45.856C55.9942 45.424 56.5622 44.816 56.9782 44.032C57.4102 43.248 57.6262 42.328 57.6262 41.272V37.624L58.3222 36.232L59.4502 36.448V41.344C59.4502 42.64 59.1622 43.8 58.5862 44.824C58.0102 45.864 57.2262 46.68 56.2342 47.272C55.2422 47.88 54.1062 48.184 52.8262 48.184ZM52.7782 41.44C53.7222 41.44 54.5542 41.232 55.2742 40.816C56.0102 40.384 56.5862 39.792 57.0022 39.04C57.4182 38.288 57.6262 37.424 57.6262 36.448C57.6262 35.472 57.4182 34.608 57.0022 33.856C56.5862 33.088 56.0102 32.496 55.2742 32.08C54.5542 31.648 53.7222 31.432 52.7782 31.432C51.8342 31.432 50.9942 31.648 50.2582 32.08C49.5222 32.496 48.9462 33.088 48.5302 33.856C48.1142 34.608 47.9062 35.472 47.9062 36.448C47.9062 37.424 48.1142 38.288 48.5302 39.04C48.9462 39.792 49.5222 40.384 50.2582 40.816C50.9942 41.232 51.8342 41.44 52.7782 41.44ZM68.7564 43.144C67.6204 43.144 66.6044 42.912 65.7084 42.448C64.8124 41.968 64.1004 41.272 63.5724 40.36C63.0604 39.448 62.8044 38.336 62.8044 37.024V30.784C62.8044 30.528 62.8924 30.312 63.0684 30.136C63.2444 29.96 63.4604 29.872 63.7164 29.872C63.9884 29.872 64.2124 29.96 64.3884 30.136C64.5644 30.312 64.6524 30.528 64.6524 30.784V37.024C64.6524 38.016 64.8364 38.832 65.2044 39.472C65.5884 40.112 66.1004 40.592 66.7404 40.912C67.3964 41.232 68.1324 41.392 68.9484 41.392C69.7324 41.392 70.4364 41.24 71.0604 40.936C71.7004 40.632 72.2044 40.216 72.5724 39.688C72.9404 39.16 73.1244 38.56 73.1244 37.888H74.4444C74.3964 38.896 74.1164 39.8 73.6044 40.6C73.1084 41.384 72.4364 42.008 71.5884 42.472C70.7404 42.92 69.7964 43.144 68.7564 43.144ZM74.0364 43C73.7644 43 73.5404 42.92 73.3644 42.76C73.2044 42.584 73.1244 42.352 73.1244 42.064V30.784C73.1244 30.512 73.2044 30.296 73.3644 30.136C73.5404 29.96 73.7644 29.872 74.0364 29.872C74.3084 29.872 74.5324 29.96 74.7084 30.136C74.8844 30.296 74.9724 30.512 74.9724 30.784V42.064C74.9724 42.352 74.8844 42.584 74.7084 42.76C74.5324 42.92 74.3084 43 74.0364 43ZM85.2386 43.12C83.9426 43.12 82.7906 42.84 81.7826 42.28C80.7906 41.704 80.0066 40.912 79.4306 39.904C78.8706 38.896 78.5906 37.744 78.5906 36.448C78.5906 35.136 78.8546 33.984 79.3826 32.992C79.9266 31.984 80.6706 31.192 81.6146 30.616C82.5586 30.04 83.6466 29.752 84.8786 29.752C86.0946 29.752 87.1506 30.032 88.0466 30.592C88.9586 31.136 89.6626 31.896 90.1586 32.872C90.6546 33.848 90.9026 34.96 90.9026 36.208C90.9026 36.464 90.8226 36.672 90.6626 36.832C90.5026 36.976 90.2946 37.048 90.0386 37.048H79.8386V35.512H90.2306L89.1986 36.256C89.2146 35.328 89.0466 34.496 88.6946 33.76C88.3426 33.024 87.8386 32.448 87.1826 32.032C86.5426 31.616 85.7746 31.408 84.8786 31.408C83.9666 31.408 83.1666 31.624 82.4786 32.056C81.7906 32.488 81.2546 33.088 80.8706 33.856C80.5026 34.608 80.3186 35.472 80.3186 36.448C80.3186 37.424 80.5266 38.288 80.9426 39.04C81.3746 39.792 81.9586 40.384 82.6946 40.816C83.4306 41.248 84.2786 41.464 85.2386 41.464C85.8146 41.464 86.3906 41.368 86.9666 41.176C87.5586 40.968 88.0306 40.712 88.3826 40.408C88.5586 40.264 88.7586 40.192 88.9826 40.192C89.2066 40.176 89.3986 40.232 89.5586 40.36C89.7666 40.552 89.8706 40.76 89.8706 40.984C89.8866 41.208 89.7986 41.4 89.6066 41.56C89.0786 42.008 88.4066 42.384 87.5906 42.688C86.7746 42.976 85.9906 43.12 85.2386 43.12ZM94.7968 34.912C94.8448 33.92 95.1008 33.032 95.5648 32.248C96.0448 31.464 96.6608 30.848 97.4128 30.4C98.1808 29.952 99.0288 29.728 99.9568 29.728C100.693 29.728 101.261 29.832 101.661 30.04C102.061 30.248 102.213 30.552 102.117 30.952C102.053 31.192 101.941 31.352 101.781 31.432C101.637 31.512 101.453 31.544 101.229 31.528C101.021 31.512 100.781 31.496 100.509 31.48C99.6128 31.4 98.8128 31.496 98.1088 31.768C97.4208 32.024 96.8688 32.424 96.4528 32.968C96.0528 33.512 95.8528 34.16 95.8528 34.912H94.7968ZM94.9408 43C94.6528 43 94.4288 42.92 94.2688 42.76C94.1088 42.6 94.0288 42.376 94.0288 42.088V30.784C94.0288 30.496 94.1088 30.272 94.2688 30.112C94.4288 29.952 94.6528 29.872 94.9408 29.872C95.2288 29.872 95.4528 29.952 95.6128 30.112C95.7728 30.272 95.8528 30.496 95.8528 30.784V42.088C95.8528 42.376 95.7728 42.6 95.6128 42.76C95.4528 42.92 95.2288 43 94.9408 43Z" fill="#EDF2F7"/>
</svg>
